<?xml version="1.0" encoding="utf-8"?>
<!-- Generator: Adobe Illustrator 17.1.0, SVG Export Plug-In . SVG Version: 6.00 Build 0)  -->
<!DOCTYPE svg PUBLIC "-//W3C//DTD SVG 1.1//EN" "http://www.w3.org/Graphics/SVG/1.1/DTD/svg11.dtd">
<svg version="1.1" id="Слой_1" xmlns="http://www.w3.org/2000/svg" xmlns:xlink="http://www.w3.org/1999/xlink" x="0px" y="0px"
	 width="209px" height="50px" viewBox="0 0 209 50" enable-background="new 0 0 209 50" xml:space="preserve">
<g>
	<path fill="#3E4347" d="M129.603,0.002h-0.138c-1.369,0-1.655,0.292-1.655,1.691v27.395c0,0.7-0.147,0.845-0.845,0.845h-3.58
		c-0.7,0-0.846-0.146-0.846-0.845V1.693c0-1.399-0.286-1.691-1.655-1.691h-0.138c-1.368,0-1.654,0.292-1.654,1.691v27.395
		c0,0.7-0.147,0.845-0.847,0.845h-3.728c-0.7,0-0.845-0.146-0.845-0.845V1.693c0-1.399-0.286-1.691-1.654-1.691h-0.138
		c-1.369,0-1.655,0.292-1.655,1.691v29.72c0,1.399,0.286,1.691,1.655,1.691h17.725c1.368,0,1.654-0.292,1.654-1.691V1.693
		C131.258,0.294,130.971,0.002,129.603,0.002"/>
	<path fill="#3E4347" d="M162.6,0.002h-2.177c-4.068,0-6.246,2.529-6.246,6.046v21.015c0,3.517,2.177,6.04,6.246,6.04h2.177
		c4.068,0,6.246-2.523,6.246-6.04V6.048C168.845,2.531,166.668,0.002,162.6,0.002 M165.398,27.063c0,1.938-0.746,2.877-2.761,2.877
		h-2.251c-2.015,0-2.761-0.939-2.761-2.877V6.047c0-1.937,0.746-2.876,2.761-2.876h2.251c2.015,0,2.761,0.939,2.761,2.876V27.063z"
		/>
	<path fill="#3E4347" d="M186.878,0.277c-0.013,0-8.412-0.001-8.412-0.001c-1.166,0-1.672,0.368-1.742,1.687
		c-0.377,7.181-0.61,11.394-0.963,18.577c-0.248,5.032-1.326,8.583-3.588,9.627c-1.224,0.563-1.471,0.812-1.043,2.007l0.099,0.264
		c0.515,1.087,1.026,1.102,2.028,0.741c4.193-1.508,5.626-7.162,5.942-12.475c0.384-6.438,0.552-10.49,0.855-16.448
		c0.04-0.663,0.201-0.811,0.885-0.811h3.262c0.698,0,0.846,0.147,0.846,0.846v27.122c0,1.399,0.286,1.691,1.654,1.691h0.138
		c1.369,0,1.655-0.292,1.655-1.691V1.967C188.494,0.583,188.209,0.284,186.878,0.277"/>
	<path fill="#3E4347" d="M176.724,1.967V1.963c0.002-0.034,0.004-0.066,0.006-0.1L176.724,1.967z"/>
	<path fill="#3E4347" d="M208.699,31.412c-0.836-9.975-1.333-15.897-2.171-25.873c-0.292-3.36-2.589-5.537-5.694-5.537
		c-3.104,0-5.401,2.177-5.694,5.537c-0.838,9.976-1.334,15.898-2.172,25.873c-0.118,1.399,0.144,1.691,1.513,1.691h0.138
		c1.368,0,1.678-0.292,1.796-1.691c0.19-2.261,0.362-4.308,0.524-6.247c0.065-0.655,0.233-0.803,0.913-0.803h5.961
		c0.68,0,0.849,0.147,0.913,0.803c0.163,1.939,0.335,3.986,0.524,6.247c0.118,1.399,0.428,1.691,1.797,1.691h0.138
		C208.556,33.103,208.818,32.812,208.699,31.412 M198.119,21.191c-0.679,0-0.825-0.148-0.778-0.796
		c0.389-4.642,0.762-9.067,1.247-14.856c0.115-1.442,1.026-2.378,2.247-2.378c1.221,0,2.131,0.936,2.247,2.378
		c0.485,5.789,0.858,10.214,1.247,14.856c0.047,0.648-0.099,0.796-0.778,0.796H198.119z"/>
	<path fill="#3E4347" d="M151.207,31.519c-3.396-9.341-6.225-17.459-6.225-17.459l4.951-12.421c0.466-1.164,0.331-1.637-1.284-1.637
		L148.513,0c-1.241,0-1.76,0.306-2.245,1.523l-4.764,11.949c-0.713,0.51-1.425,1.021-2.138,1.533V1.693
		c0-1.399-0.286-1.691-1.654-1.691h-0.138c-1.369,0-1.655,0.292-1.655,1.691v29.72c0,1.399,0.286,1.691,1.655,1.691h0.138
		c1.368,0,1.654-0.292,1.654-1.691V18.995c0.988-0.708,1.975-1.416,2.963-2.124c2.613,7.23,2.052,5.965,5.211,14.654
		c0.479,1.313,0.882,1.588,2.339,1.588h0.146C151.48,33.111,151.686,32.834,151.207,31.519"/>
	<path fill="#0096D6" d="M92.02,0.277H6.552c-5.222,0-6.316,1.093-6.316,6.315v36.984c0,5.221,1.093,6.315,6.316,6.315H92.02
		c5.222,0,6.315-1.094,6.315-6.315V6.592C98.335,1.37,97.241,0.277,92.02,0.277 M24.025,15.108c0-2.611,0.548-3.158,3.158-3.158
		h8.541c2.611,0,3.157,0.547,3.157,3.158v8.277c0,2.61-0.546,3.159-3.157,3.159h-8.541c-2.61,0-3.158-0.549-3.158-3.159V15.108z
		 M6.19,15.108c0-2.611,0.546-3.158,3.158-3.158h8.538c2.61,0,3.157,0.547,3.157,3.158v8.277c0,2.61-0.547,3.159-3.157,3.159H9.349
		c-2.613,0-3.158-0.549-3.158-3.159V15.108z M56.717,40.897c0,2.611-0.546,3.157-3.157,3.157H9.339c-2.61,0-3.158-0.546-3.158-3.157
		V32.62c0-2.611,0.548-3.157,3.158-3.157h44.221c2.611,0,3.157,0.546,3.157,3.157V40.897z M56.717,23.385
		c0,2.61-0.546,3.159-3.157,3.159h-8.539c-2.611,0-3.158-0.549-3.158-3.159v-8.277c0-2.611,0.546-3.158,3.158-3.158h8.539
		c2.611,0,3.157,0.547,3.157,3.158V23.385z M74.553,40.897c0,2.611-0.546,3.157-3.157,3.157h-8.539
		c-2.611,0-3.158-0.546-3.158-3.157V32.62c0-2.611,0.547-3.157,3.158-3.157h8.539c2.611,0,3.157,0.546,3.157,3.157V40.897z
		 M92.391,40.897c0,2.611-0.547,3.157-3.158,3.157h-8.541c-2.611,0-3.157-0.546-3.157-3.157V32.62c0-2.611,0.546-3.157,3.157-3.157
		h8.541c2.61,0,3.158,0.546,3.158,3.157V40.897z M92.391,23.385c0,2.61-0.547,3.159-3.158,3.159H62.857
		c-2.611,0-3.158-0.549-3.158-3.159v-8.277c0-2.611,0.547-3.158,3.158-3.158h26.376c2.61,0,3.158,0.547,3.158,3.158V23.385z"/>
	<path fill="#3E4347" d="M128.102,36.857h-0.864c-1.615,0-2.479,1.003-2.479,2.4v8.344c0,1.396,0.864,2.399,2.479,2.399h0.864
		c1.616,0,2.48-1.003,2.48-2.399v-8.344C130.582,37.86,129.718,36.857,128.102,36.857 M129.213,47.602
		c0,0.769-0.296,1.142-1.095,1.142h-0.894c-0.801,0-1.097-0.373-1.097-1.142v-8.345c0-0.77,0.297-1.142,1.097-1.142h0.894
		c0.799,0,1.095,0.372,1.095,1.142V47.602z"/>
	<path fill="#3E4347" d="M115.253,36.964h-4.373c-0.543,0-0.657,0.116-0.657,0.672v11.693c0,0.556,0.113,0.672,0.657,0.672h0.055
		c0.543,0,0.657-0.116,0.657-0.672V38.559c0-0.278,0.059-0.337,0.335-0.337h2.278c0.277,0,0.336,0.059,0.336,0.337v10.769
		c0,0.556,0.113,0.672,0.656,0.672h0.056c0.542,0,0.657-0.116,0.657-0.672V37.636C115.91,37.08,115.795,36.964,115.253,36.964"/>
	<path fill="#3E4347" d="M137.084,36.964h-3.933c-0.499,0.008-0.611,0.133-0.611,0.672v11.693c0,0.556,0.114,0.672,0.658,0.672
		h0.055c0.542,0,0.657-0.116,0.657-0.672V38.559c0-0.278,0.059-0.337,0.337-0.337l2.838-0.003c0.51,0,0.615-0.103,0.615-0.602
		v-0.051C137.7,37.068,137.594,36.964,137.084,36.964"/>
	<path fill="#3E4347" d="M193.879,38.219c0.509,0,0.615-0.103,0.615-0.602v-0.051c0-0.498-0.107-0.603-0.615-0.603h-5.223
		c-0.509,0-0.615,0.105-0.615,0.603v0.051c0,0.499,0.106,0.602,0.615,0.602h1.591c0.277,0,0.335,0.062,0.335,0.34v10.77
		c0,0.556,0.113,0.672,0.657,0.672h0.055c0.544,0,0.658-0.116,0.658-0.672v-10.77c0-0.278,0.058-0.34,0.335-0.34H193.879z"/>
	<path fill="#3E4347" d="M198.624,36.857h-0.864c-1.614,0-2.48,1.005-2.48,2.402v8.344c0,1.396,0.865,2.397,2.48,2.397h0.864
		c1.616,0,2.48-1.001,2.48-2.397v-8.344C201.105,37.862,200.241,36.857,198.624,36.857 M199.736,47.603
		c0,0.769-0.296,1.142-1.096,1.142h-0.894c-0.801,0-1.096-0.372-1.096-1.142v-8.344c0-0.77,0.296-1.143,1.096-1.143h0.894
		c0.8,0,1.096,0.373,1.096,1.143V47.603z"/>
	<path fill="#3E4347" d="M185.888,39.259c0,0.556,0.112,0.672,0.655,0.672h0.055c0.543,0,0.657-0.116,0.657-0.672
		c0-1.397-0.864-2.402-2.48-2.402h-0.971c-1.616,0-2.48,1.005-2.48,2.402v8.344c0,1.396,0.864,2.396,2.48,2.396h0.971
		c1.616,0,2.48-1,2.48-2.396v-0.942c0-0.554-0.114-0.67-0.657-0.67h-0.055c-0.543,0-0.655,0.116-0.655,0.67v0.942
		c0,0.769-0.297,1.142-1.098,1.142h-1.001c-0.8,0-1.096-0.372-1.096-1.142v-8.344c0-0.77,0.296-1.143,1.096-1.143h1.001
		C185.591,38.116,185.888,38.489,185.888,39.259"/>
	<path fill="#3E4347" d="M120.707,36.964h-2.225c-0.503,0.008-0.614,0.133-0.614,0.672v11.693c0,0.556,0.113,0.672,0.657,0.672
		h0.055c0.543,0,0.657-0.116,0.657-0.672v-3.713h1.47c1.615,0,2.48-1.003,2.48-2.401v-3.85
		C123.187,37.97,122.322,36.964,120.707,36.964 M120.722,38.222c0.801,0,1.096,0.374,1.096,1.143v3.85
		c0,0.769-0.296,1.142-1.096,1.142h-1.15c-0.277,0-0.335-0.058-0.335-0.335v-5.463c0-0.278,0.058-0.337,0.335-0.337H120.722z"/>
	<path fill="#3E4347" d="M170.25,36.857c-0.31,0-0.595,0.226-0.832,0.67c-1.12,2.106-2.114,3.969-2.114,3.969l-0.402,0.868
		l-0.402-0.87c0,0-0.993-1.862-2.114-3.967c-0.251-0.436-0.523-0.67-0.832-0.67c-0.44,0-0.537,0.159-0.537,0.67v11.801
		c0,0.556,0.113,0.672,0.658,0.672h0.054c0.542,0,0.657-0.116,0.657-0.672v-6.263l-0.079-2.996l0.404,0.923
		c0,0,0.653,1.225,1.596,2.995c0.062,0.112,0.22,0.325,0.595,0.325c0.374,0,0.508-0.164,0.595-0.325l1.597-2.995l0.402-0.923
		l-0.078,2.996v6.263c0,0.556,0.113,0.672,0.657,0.672h0.055c0.543,0,0.657-0.116,0.657-0.672V37.527
		C170.788,37.016,170.691,36.857,170.25,36.857"/>
	<path fill="#3E4347" d="M141.65,36.964h-2.226c-0.503,0.008-0.613,0.133-0.613,0.672v11.693c0,0.556,0.113,0.672,0.657,0.672h0.055
		c0.543,0,0.657-0.116,0.657-0.672v-3.713h1.47c1.616,0,2.48-1.003,2.48-2.401v-3.85C144.13,37.97,143.266,36.964,141.65,36.964
		 M141.665,38.222c0.801,0,1.097,0.374,1.097,1.143v3.85c0,0.769-0.296,1.142-1.097,1.142h-1.148c-0.278,0-0.336-0.058-0.336-0.335
		v-5.463c0-0.278,0.058-0.337,0.336-0.337H141.665z"/>
	<path fill="#3E4347" d="M151.563,49.328c-0.333-3.961-0.531-6.312-0.864-10.274c-0.116-1.335-1.028-2.198-2.26-2.198
		s-2.145,0.863-2.261,2.198c-0.332,3.961-0.529,6.313-0.862,10.274c-0.047,0.556,0.057,0.671,0.6,0.671h0.056
		c0.543,0,0.666-0.116,0.713-0.671c0.075-0.898,0.143-1.71,0.208-2.481c0.026-0.259,0.092-0.318,0.363-0.318h2.366
		c0.271,0,0.338,0.059,0.363,0.319c0.065,0.77,0.133,1.582,0.208,2.48c0.047,0.556,0.171,0.671,0.714,0.671h0.055
		C151.506,50,151.61,49.884,151.563,49.328 M147.36,45.271c-0.269,0-0.327-0.06-0.309-0.317c0.155-1.842,0.303-3.6,0.496-5.898
		c0.046-0.572,0.408-0.945,0.892-0.945c0.484,0,0.846,0.372,0.892,0.945c0.193,2.299,0.34,4.056,0.494,5.898
		c0.019,0.257-0.039,0.317-0.309,0.317H147.36z"/>
	<path fill="#3E4347" d="M178.828,36.857c-0.25,0-0.531,0.15-0.832,0.675l-3.354,7.391l-0.612,1.729l0.084-3.313v-5.812
		c0-0.554-0.114-0.67-0.658-0.67h-0.055c-0.544,0-0.657,0.116-0.657,0.67v11.801c0,0.513,0.097,0.672,0.538,0.672
		c0.249,0,0.53-0.147,0.831-0.672l3.352-7.26l0.613-1.73l-0.084,3.227v5.768c0,0.554,0.113,0.667,0.657,0.667h0.055
		c0.543,0,0.655-0.112,0.655-0.667V37.532C179.363,37.02,179.27,36.857,178.828,36.857"/>
	<path fill="#3E4347" d="M207.862,42.583c0.342-0.415,0.521-0.964,0.521-1.596v-1.622c0-1.395-0.864-2.402-2.48-2.402h-2.223
		c-0.509,0-0.615,0.105-0.615,0.603c0,0,0.001,7.785,0.001,11.723c0,0.499,0.107,0.602,0.615,0.602c0.042,0.005,2.603,0,2.603,0
		c1.616,0,2.48-1.005,2.48-2.401v-2.959C208.763,43.698,208.454,43.007,207.862,42.583 M204.433,38.558
		c0-0.277,0.057-0.335,0.335-0.335h1.15c0.801,0,1.097,0.374,1.097,1.143v1.622c0,0.769-0.296,1.142-1.097,1.142h-1.15
		c-0.277,0-0.335-0.058-0.335-0.336V38.558z M207.394,47.491c0,0.769-0.296,1.143-1.096,1.143h-1.53
		c-0.277,0-0.335-0.058-0.335-0.335v-4.573c0-0.279,0.057-0.337,0.335-0.337h1.53c0.801,0,1.096,0.374,1.096,1.142V47.491z"/>
	<path fill="#3E4347" d="M160.521,36.857c-0.309,0-0.595,0.226-0.832,0.67c-1.121,2.106-2.114,3.969-2.114,3.969l-0.402,0.868
		l-0.403-0.87c0,0-0.993-1.862-2.115-3.967c-0.251-0.436-0.522-0.67-0.831-0.67c-0.441,0-0.536,0.159-0.536,0.67v11.801
		c0,0.556,0.113,0.672,0.656,0.672h0.056c0.542,0,0.655-0.116,0.655-0.672v-6.263l-0.077-2.996l0.403,0.923
		c0,0,0.652,1.225,1.596,2.995c0.062,0.112,0.222,0.325,0.596,0.325c0.373,0,0.507-0.164,0.595-0.325l1.596-2.995l0.404-0.923
		l-0.079,2.996v6.263c0,0.556,0.114,0.672,0.658,0.672h0.053c0.544,0,0.658-0.116,0.658-0.672V37.527
		C161.058,37.016,160.962,36.857,160.521,36.857"/>
</g>
</svg>
